Coordinates
version=1
nRows=8
nColumns=36
inDegrees=yes

Units are S.I. units (second, meters, Newtons, ...)
If the header above contains a line with 'inDegrees', this indicates whether rotational values are in degrees (yes) or radians (no).

endheader
time	pelvis_tilt	pelvis_list	pelvis_rotation	pelvis_tx	pelvis_ty	pelvis_tz	hip_flexion_r	hip_adduction_r	hip_rotation_r	knee_angle_r	knee_angle_r_beta	ankle_angle_r	subtalar_angle_r	mtp_angle_r	hip_flexion_l	hip_adduction_l	hip_rotation_l	knee_angle_l	knee_angle_l_beta	ankle_angle_l	subtalar_angle_l	mtp_angle_l	lumbar_extension	lumbar_bending	lumbar_rotation	arm_flex_r	arm_add_r	arm_rot_r	elbow_flex_r	pro_sup_r	arm_flex_l	arm_add_l	arm_rot_l	elbow_flex_l	pro_sup_l
      0.00000000	     -1.28901415	      0.23777948	      3.70617180	      0.05098695	      1.22668649	      0.08257646	      7.26152327	      2.25497722	      4.19467909	      4.19817299	      0.07327194	      3.90013019	     -2.39090002	     -6.10169163	      9.90276277	     -1.28433525	      2.57343837	     11.18941547	      0.19529214	      8.39892157	      0.48551067	     -6.10169163	     -2.21055457	      2.47299007	     -5.44300532	     -3.06780465	     -8.24919158	      8.19041608	     27.92572948	     77.35668611	     -2.12067368	     -5.09159278	     13.55065478	     24.58769451	     71.39075281
      0.01666670	     -1.92584357	      1.18729635	      3.66571515	      0.04971506	      1.22493458	      0.08133473	      8.23086227	      1.05985976	      6.37659832	      3.70659903	      0.06469236	      6.16745246	     -3.81069500	     -6.71621768	     10.62908073	      0.17455535	      4.67435998	     11.88587989	      0.20744774	      9.40240626	      0.39363267	     -6.71621768	     -0.77935218	      1.67670087	     -5.45450794	     -3.58975218	     -7.17606440	      2.22131985	     27.81110879	     81.27435570	     -2.46059381	     -3.98223478	      8.29005398	     24.34926089	     76.98876505
      0.03333330	     -3.05261825	      1.95568639	      3.24847759	      0.05175901	      1.22741194	      0.08253143	      8.68414620	      0.30366227	      6.13516503	      2.42218334	      0.04227507	      5.70748777	     -3.18983241	     -6.78448114	     11.68291923	      1.04003181	      4.80104404	     11.84548087	      0.20674264	      8.79570275	      0.26767941	     -6.78448114	      0.93128636	      0.69136486	     -5.38100110	     -4.32517768	     -6.87427253	      1.34983799	     28.59411332	     80.30591081	     -3.35799364	     -4.03880784	      7.80492095	     24.84732789	     76.24415127
      0.05000000	     -2.98823147	      2.20349402	      3.13714007	      0.05226551	      1.22919882	      0.08289598	      8.21221198	      0.05271863	      6.40332401	      2.06138614	      0.03597798	      5.59713458	     -2.89002793	     -7.07396926	     11.33822165	      1.33754664	      5.38076286	     11.60515897	      0.20254823	      8.50579180	     -0.38151052	     -7.07396926	      0.97608137	      0.44014633	     -4.75911693	     -5.17954096	     -5.50265337	     -7.35264081	     29.57817583	     86.80473898	     -3.23418068	     -3.30409517	      4.02132268	     24.18771505	     80.37423532
      0.06666670	     -2.78528873	      2.18861658	      3.12217521	      0.05339774	      1.22842790	      0.08252630	      7.60693347	      0.08542323	      6.34933265	      1.72183434	      0.03005168	      5.48174583	     -2.61872718	     -7.15224590	     10.80268128	      1.26455636	      5.90996299	     11.42375654	      0.19938216	      8.45536887	     -0.93567121	     -7.15224590	      0.87137508	      0.52945865	     -4.76494298	     -5.37389891	     -5.43418317	     -7.92307267	     29.98244341	     84.53979497	     -3.55605422	     -3.03049653	      3.06523944	     24.47649864	     78.37934029
      0.08333330	     -2.57163123	      2.19464304	      2.87798831	      0.05357517	      1.22885735	      0.08315793	      7.10760463	      0.10395062	      6.17740476	      1.59736481	      0.02787928	      4.88664954	     -4.21377376	     -7.35185297	     10.43040080	      1.25334881	      5.89569824	     11.18883867	      0.19528207	      8.19445175	     -1.40421007	     -7.35185297	      0.80513561	      0.56924912	     -4.72320756	     -5.36405107	     -5.30680810	     -9.03085730	     30.02020243	     87.85482276	     -3.91653277	     -2.52497741	     -0.20057818	     24.92680467	     79.67303906
      0.10000000	     -2.40291387	      2.15919861	      2.83702078	      0.05344347	      1.22866850	      0.08204476	      6.66563784	      0.15095026	      6.15880134	      1.45192040	      0.02534079	      4.49808240	     -5.03271177	     -7.38198289	     10.13856582	      1.22221444	      5.96412434	     10.86682782	      0.18966192	      8.09994952	     -2.07845418	     -7.38198289	      0.72971178	      0.56778381	     -4.58368992	     -5.45085437	     -5.30712943	     -8.73627998	     30.04440705	     85.96786143	     -3.77742307	     -2.32854321	     -1.05648904	     24.97883268	     78.18008709
      0.11666670	     -2.44217800	      2.16546459	      2.70983567	      0.05278082	      1.23241445	      0.08211567	      6.58420730	      0.19298906	      6.14241690	      1.41780833	      0.02474542	      4.47562973	     -5.03930786	     -7.38207119	     10.06952868	      1.18916905	      6.08395316	     10.82542039	      0.18893923	      8.11680310	     -2.02752994	     -7.38207119	      0.84806224	      0.53245209	     -4.59372064	     -5.42099353	     -5.27758092	     -8.72654915	     30.05393986	     85.97210268	     -3.68005878	     -2.29005439	     -1.06809160	     25.02248120	     78.17938467
